<svg width="29" height="29" viewBox="0 0 29 29" fill="none" xmlns="http://www.w3.org/2000/svg">
<rect x="0.0625" y="0.5" width="28" height="28" rx="14" fill="#B5BFCC"/>
<path d="M7.0625 13.1875C7.0625 12.4626 7.58483 11.875 8.22917 11.875C8.8735 11.875 9.39583 12.4626 9.39583 13.1875V15.8125C9.39583 16.5374 8.8735 17.125 8.22917 17.125C7.58483 17.125 7.0625 16.5374 7.0625 15.8125V13.1875Z" fill="#F6F8FA"/>
<path d="M10.9514 8.8125C10.9514 8.08763 11.4737 7.5 12.1181 7.5C12.7624 7.5 13.2847 8.08763 13.2847 8.8125V20.1875C13.2847 20.9124 12.7624 21.5 12.1181 21.5C11.4737 21.5 10.9514 20.9124 10.9514 20.1875V8.8125Z" fill="#F6F8FA"/>
<path d="M14.8403 11.4375C14.8403 10.7126 15.3626 10.125 16.0069 10.125C16.6513 10.125 17.1736 10.7126 17.1736 11.4375V17.5625C17.1736 18.2874 16.6513 18.875 16.0069 18.875C15.3626 18.875 14.8403 18.2874 14.8403 17.5625V11.4375Z" fill="#F6F8FA"/>
<path d="M18.7292 13.1875C18.7292 12.4626 19.2515 11.875 19.8958 11.875C20.5402 11.875 21.0625 12.4626 21.0625 13.1875V15.8125C21.0625 16.5374 20.5402 17.125 19.8958 17.125C19.2515 17.125 18.7292 16.5374 18.7292 15.8125V13.1875Z" fill="#F6F8FA"/>
</svg>
